{"title":"Sergio Leone's For A Few Dollars More (1965) - BDRip x265 HEVC","uid":13706855,"size":1743051296,"categoryP":"video","categoryS":"hd___movies","magnet":"?xt=urn:btih:bdc72d81c6142efe851d304c1e4337a74d02ad78&amp;dn=+Sergio+Leone%27s+For+A+Few+Dollars+More+%281965%29+-+BDRip+x265+HEVC+&amp;tr=udp%3A%2F%2Ftracker.leechers-paradise.org%3A6969&amp;tr=udp%3A%2F%2Fzer0day.ch%3A1337&amp;tr=udp%3A%2F%2Fopen.demonii.com%3A1337&amp;tr=udp%3A%2F%2Ftracker.coppersurfer.tk%3A6969&amp;tr=udp%3A%2F%2Fexodus.desync.com%3A6969","seeders":2,"leechers":0,"uploader":"BRSHNKV","files":2,"time":1456835413,"description":"Two bounty hunters with the same intentions, team up to track down a Western outlaw.\r\n\r\n\r\nTechnical:\r\n\r\nFormat : MPEG-4\r\nFormat profile : Base Media / Version 2\r\nCodec ID : mp42\r\nFile size : 1.62 GiB\r\nDuration : 2h 12mn\r\nOverall bit rate mode : Variable\r\nOverall bit rate : 1 757 Kbps\r\nEncoded date : UTC 2016-02-28 03:52:55\r\nTagged date : UTC 2016-02-28 03:52:55\r\nWriting application : HandBrake 0.10.2 2015061100\r\n\r\nVideo\r\nID : 1\r\nFormat : HEVC\r\nFormat/Info : High Efficiency Video Coding\r\nFormat profile :   @Main\r\nCodec ID : hev1\r\nCodec ID/Info : High Efficiency Video Coding\r\nDuration : 2h 12mn\r\nBit rate : 1 501 Kbps\r\nWidth : 1 920 pixels\r\nHeight : 816 pixels\r\nDisplay aspect ratio : 2.35:1\r\nFrame rate mode : Variable\r\nFrame rate : 23.976 fps\r\nMinimum frame rate : 23.974 fps\r\nMaximum frame rate : 23.981 fps\r\nColor space : YUV\r\nChroma subsampling : 4:2:0\r\nBit depth : 8 bits\r\nBits/(Pixel*Frame) : 0.040\r\nStream size : 1.39 GiB (85%)\r\nWriting library : x265 1.5:[Mac OS X][clang 6.1.0][64 bit]\r\nEncoded date : UTC 2016-02-28 03:52:55\r\nTagged date : UTC 2016-02-28 03:52:55\r\nColor range : Limited\r\nColor primaries : BT.709\r\nTransfer characteristics : BT.709\r\nMatrix coefficients : BT.709\r\n\r\nAudio #1\r\nID : 2\r\nFormat : AAC\r\nFormat/Info : Advanced Audio Codec\r\nFormat profile : LC\r\nCodec ID : 40\r\nDuration : 2h 12mn\r\nBit rate mode : Variable\r\nBit rate : 164 Kbps\r\nChannel(s) : 2 channels\r\nChannel positions : Front: L R\r\nSampling rate : 48.0 KHz\r\nCompression mode : Lossy\r\nStream size : 155 MiB (9%)\r\nTitle : Stereo / Stereo\r\nLanguage : English\r\nEncoded date : UTC 2016-02-28 03:52:55\r\nTagged date : UTC 2016-02-28 03:52:55\r\n\r\nAudio #2\r\nID : 3\r\nFormat : AAC\r\nFormat/Info : Advanced Audio Codec\r\nFormat profile : LC\r\nCodec ID : 40\r\nDuration : 2h 12mn\r\nBit rate mode : Variable\r\nBit rate : 82.3 Kbps\r\nChannel(s) : 2 channels\r\nChannel(s)_Original : 1 channel\r\nChannel positions : Front: C\r\nSampling rate : 48.0 KHz\r\nCompression mode : Lossy\r\nStream size : 77.8 MiB (5%)\r\nTitle : Mono / Mono\r\nEncoded date : UTC 2016-02-28 03:52:55\r\nTagged date : UTC 2016-02-28 03:52:55\r\n\r\nText\r\nID : 4\r\nFormat : Timed Text\r\nMuxing mode : sbtl\r\nCodec ID : tx3g\r\nDuration : 2h 10mn\r\nBit rate mode : Variable\r\nBit rate : 26 bps\r\nStream size : 24.9 KiB (0%)\r\nLanguage : English\r\nEncoded date : UTC 2016-02-28 03:52:55\r\nTagged date : UTC 2016-02-28 03:52:55\r\n\r\nMenu\r\nID : 5\r\nCodec ID : text\r\nDuration : 2h 12mn\r\nLanguage : English\r\nEncoded date : UTC 2016-02-28 03:52:55\r\nTagged date : UTC 2016-02-28 03:52:55\r\nBit rate mode : CBR\r\n00:00:00.000 : 00:00:00.000\r\n00:06:53.538 : 00:06:53.413\r\n00:12:43.262 : 00:12:33.169\r\n00:20:52.793 : 00:20:48.622\r\n00:26:38.889 : 00:26:31.590\r\n00:31:20.045 : 00:31:09.951\r\n00:38:18.379 : 00:38:09.037\r\n00:45:09.248 : 00:44:59.906\r\n00:52:02.745 : 00:51:53.402\r\n00:57:45.462 : 00:57:36.119\r\n01:02:35.877 : 01:02:26.493\r\n01:09:58.069 : 01:09:48.643\r\n01:15:16.929 : 01:15:12.842\r\n01:22:40.289 : 01:22:40.164\r\n01:28:53.620 : 01:28:46.530\r\n01:34:23.157 : 01:34:13.690\r\n01:40:39.742 : 01:40:38.241\r\n01:47:08.922 : 01:46:59.622\r\n01:53:20.377 : 01:53:16.623\r\n01:58:57.505 : 01:58:48.079","torrent":{"xt":"urn:btih:bdc72d81c6142efe851d304c1e4337a74d02ad78","amp;dn":"+Sergio+Leone%27s+For+A+Few+Dollars+More+%281965%29+-+BDRip+x265+HEVC+","amp;tr":["udp%3A%2F%2Ftracker.leechers-paradise.org%3A6969","udp%3A%2F%2Fzer0day.ch%3A1337","udp%3A%2F%2Fopen.demonii.com%3A1337","udp%3A%2F%2Ftracker.coppersurfer.tk%3A6969","udp%3A%2F%2Fexodus.desync.com%3A6969"],"infoHash":"bdc72d81c6142efe851d304c1e4337a74d02ad78","infoHashBuffer":{"type":"Buffer","data":[189,199,45,129,198,20,46,254,133,29,48,76,30,67,55,167,77,2,173,120]},"announce":[],"urlList":[]}}